<?xml version="1.0" ?>

<!-- Uploaded to: SVG Repo, www.svgrepo.com, Generator: SVG Repo Mixer Tools -->
<svg fill="#FFFFFF" width="800px" height="800px" viewBox="0 0 512 512" id="icon" version="1.1" xml:space="preserve" xmlns="http://www.w3.org/2000/svg" xmlns:xlink="http://www.w3.org/1999/xlink">

<g>

<path d="M421.8716125,173.857193V56.7127991c0-2.9283981-2.3721008-5.2978973-5.2979126-5.2978973h-39.8595886   c-2.9258118,0-5.2981262,2.3694992-5.2981262,5.2978973v76.4842987   c-21.2350769-26.8355942-53.793396-43.3507996-89.4196777-43.3507996h-51.9951019   c-48.3445129,0-91.0893097,30.3498993-107.4245071,75.7778015l-27.2949982,6.3625946   c-12.0292969,2.8093109-21.0990982,14.2384033-21.0990982,26.5886078v54.9671936   c0,11.8740082,8.1952972,23.1685944,19.4845963,26.8522186l69.588707,22.6822815   c2.6178894,0.8484192,5.3600922,1.2832031,8.1515961,1.2832031c7.7281952,0,15.1698914-3.4284058,20.2749023-8.9858093   l36.9841003,25.4259033l-2.6206055,24.0816956c-0.162796,1.4950256,0.3184052,2.9907227,1.3245087,4.1130066   c1.003891,1.1179199,2.4369965,1.7593994,3.9425964,1.7593994h49.3742828c1.5056152,0,2.9387207-0.6414795,3.9423218-1.7593994   c1.0063782-1.1222839,1.4875793-2.617981,1.3244934-4.1130066l-2.6207886-24.083374l36.9640808-25.4120178   c5.0910034,5.6112061,12.432312,8.9736023,20.2926941,8.9736023c2.7915039,0,5.5334167-0.4347839,8.1540222-1.2832031   l22.671875-7.3901062v91.8434143c0,12.4636841-10.1381836,22.5991821-22.6017761,22.5991821h-0.5952148   c-12.4635925,0-22.6020813-10.135498-22.6020813-22.5991821v-27.7633057c0-2.9282837-2.3720093-5.2980957-5.297821-5.2980957   h-39.8595886c-2.9258118,0-5.2979126,2.369812-5.2979126,5.2980957v27.7633057   c0,40.2835083,32.7737122,73.0548096,73.0574036,73.0548096h0.5952148c40.2836914,0,73.0574036-32.7713013,73.0574036-73.0548096   V278.8976135c9.4135742-4.6829224,15.9458008-14.7695007,15.9458008-25.3551178v-54.9671936   C437.8174133,188.0789948,431.2307129,178.2955017,421.8716125,173.857193z M382.012207,62.0108986h29.2633972v108.7077026   l-21.8557129-5.0944977c-2.0634766-5.7404022-4.5404968-11.2362976-7.4076843-16.4626007V62.0108986z M185.9174957,285.5169983   c-3.6632996,6.4154968-12.3085938,9.7887878-19.3786926,7.4814148l-69.5858994-22.6822205   c-6.8272018-2.224884-12.1743011-9.5924072-12.1743011-16.7736969v-54.9671936   c0-7.4297028,5.6730957-14.5801086,12.9113007-16.2718048l110.1491928-25.6779022   c1.2393036-0.2846985,2.5299988-0.4245911,3.8415985-0.4245911c5.8515015,0,12.0810089,2.7527008,15.6172028,7.191803   l8.7285004,10.9428864c4.4389038,5.5618134,5.1246948,14.4247131,1.5935059,20.6074066L185.9174957,285.5169983z    M237.2187958,340.1582031l12.8623047-118.2125092h11.8354034l12.8648071,118.2125092H237.2187958z M282.0310059,308.8340149   l-10.09552-92.7606201c-0.2921753-2.6852875-2.5636902-4.7238922-5.2667847-4.7238922h-21.339798   c-2.7033997,0-4.9747009,2.0386047-5.2669067,4.7238922l-10.093689,92.7622986L197.537796,286.540802l49.2864075-86.3410034   c5.6526031-9.9028015,4.5942993-23.5619049-2.5146027-32.4763947l-8.7256012-10.9374084   c-6.925293-8.6869965-19.2958984-12.9967957-30.1481934-10.4771881l-70.3411102,16.3970947   c16.4089966-37.5957031,53.3930969-62.2634048,94.9065094-62.2634048h51.9951019   c41.5170898,0,78.5007935,24.6682053,94.9060059,62.2634048l-70.3405151-16.3970947   c-10.8059082-2.5196075-23.2179871,1.7850952-30.145813,10.4771881l-8.7255859,10.9374084   c-7.1115112,8.9144897-8.1695862,22.5735931-2.5170898,32.4763947l49.2879028,86.3395081L282.0310059,308.8340149z    M411.2756042,387.530304c0,34.4421997-28.0190125,62.4585876-62.4613953,62.4585876h-0.5952148   c-34.4423828,0-62.4613953-28.0163879-62.4613953-62.4585876v-22.46521h29.2633972v22.46521   c0,18.3049011,14.8927917,33.1954041,33.197998,33.1954041h0.5952148c18.3049011,0,33.197998-14.8905029,33.197998-33.1954041   v-95.2977905l29.2633972-9.5380249V387.530304z M427.221405,253.5424957c0,7.1812897-5.3497925,14.5488129-12.1766968,16.7736969   l-0.3988953,0.1300049c-0.0601196,0.0241089-0.1233215,0.0336914-0.1819153,0.0594177l-69.0026855,22.4927979   c-7.0906067,2.307373-15.7127075-1.0608215-19.3809204-7.4814148L274.3776855,194.9431   c-3.5312805-6.1826935-2.8456726-15.0455933,1.5962219-20.6127014l8.7255859-10.9427948   c3.5390015-4.4338989,9.7709961-7.1865997,15.619812-7.1865997c1.3117981,0,2.6026001,0.1398926,3.8390808,0.4245911   l110.1490173,25.6779022c7.2409058,1.6916962,12.9140015,8.8421021,12.9140015,16.2718048V253.5424957z"/>

<path d="M225.3603973,182.3240967l-8.4776001-10.6324005c-0.8354034-1.0502014-2.0382996-1.7434998-3.3600922-1.940094   c-0.4116058-0.0933075-1.0427094-0.2276001-1.7436066-0.2378998c-0.414093,0.0361938-0.8643036,0.0413971-1.2859039,0.1394958   l-108.3044968,25.2798004c-2.3955002,0.5588074-4.0924988,2.6952972-4.0924988,5.1582031v52.7422943   c0,2.292099,1.4746017,4.325592,3.655304,5.0394897l67.2316971,21.9164124   c0.543396,0.1758118,1.0968933,0.258606,1.642807,0.258606c1.8600922,0,3.6373901-0.9829102,4.6022949-2.6696167   l50.6286011-88.6853943c0.4400024-0.7707977,0.6779938-1.6399994,0.6960907-2.5246887   c0.0078125-0.4033051-0.0673981-1.2468109-0.1498871-1.6401978   C226.232193,183.7210999,225.8751984,182.9656982,225.3603973,182.3240967z M168.1660004,268.3757019l-59.4736023-19.3863068   v-44.6918945l101.7077026-23.7427063l4.6047974,5.7738037L168.1660004,268.3757019z"/>

<path d="M409.8088074,194.9329987l-108.302002-25.2798004c-0.4216003-0.0980988-0.8510132-0.1138-1.2859192-0.1394958   c-0.6695862,0.0102997-1.2750854,0.134201-1.7435913,0.2378998c-1.3218079,0.1965942-2.5246887,0.8898926-3.362793,1.940094   l-8.4772949,10.6324005c-0.535614,0.6674957-0.9004211,1.459198-1.0608215,2.3025055   c-0.0773926,0.3930969-0.1395874,1.2364044-0.1239929,1.6398926c0.0310059,0.8535004,0.2690125,1.6869049,0.6907043,2.4264984   l50.6289063,88.6853943c0.9647827,1.6867065,2.7421875,2.6696167,4.6019897,2.6696167   c0.5458984,0,1.0996094-0.0827942,1.6428223-0.258606l67.2292786-21.9164124   c2.1806946-0.7138977,3.655304-2.7473907,3.655304-5.0394897v-52.7422943   C413.9013977,197.6282959,412.2043152,195.491806,409.8088074,194.9329987z M403.3053894,248.9893951l-59.4711914,19.3863068   l-46.8388062-82.0471039l4.6020203-5.7738037l101.7079773,23.7427063V248.9893951z"/>

</g>

</svg>